<svg xmlns="http://www.w3.org/2000/svg" width="171.931" height="269.429" viewBox="0 0 171.931 269.429">
  <g id="Big_Cards" data-name="Big Cards" opacity="0.2">
    <path id="Fill_67" data-name="Fill 67" d="M5.32,104.419h0a18.544,18.544,0,0,1-2.137-.116c-1.48-.173-2.319-.492-2.642-1-.352-.558-.094-1.309.232-2.259a13.607,13.607,0,0,0,.5-1.7c.511-2.49.086-5.631-.325-8.67C.727,89.045.519,87.51.464,86.139-.3,67.236.029,48.295.4,32.024c.089-3.918.2-7.9.307-11.752q.036-1.283.071-2.566c.009-.318.02-.642.031-.97a36.378,36.378,0,0,0-.062-5.1A3.9,3.9,0,0,0,.4,10.474C.138,9.849-.054,9.4.745,8.353,1.789,6.993,4.491,6.818,6.728,6.818c.71,0,1.426.02,2.158.041l.149,0c.644.019,1.252.037,1.795.037.474,0,.853-.014,1.158-.044,4.357-.42,8.4-.726,12.356-.934,12.451-.655,25.09-1.5,37.313-2.314C88.227,1.836,115.7,0,142.854,0h2.412a65.048,65.048,0,0,1,14.365,1.13,22.859,22.859,0,0,0,2.987.548,3.844,3.844,0,0,0,.4.02c.185,0,.366-.01.541-.021h.01c.17-.01.346-.02.519-.02a2.706,2.706,0,0,1,1.081.2A4.085,4.085,0,0,1,167.564,4.9c.49,1.831.019,4.344-.436,6.774-.225,1.2-.438,2.341-.518,3.325-.334,4.15-.49,8.664-.477,13.8q0,.8,0,1.61a186.718,186.718,0,0,0,1.027,23.337c.248,1.925.523,3.871.79,5.752.721,5.091,1.467,10.351,1.715,15.626.084,1.781.149,3.592.212,5.344v.013c.09,2.494.183,5.072.331,7.611.025.437.024.888.022,1.365a11.207,11.207,0,0,0,.215,2.772A2.067,2.067,0,0,0,171.2,93.3a1.234,1.234,0,0,1,.449.568c.314,1.263.419,2.1.027,2.669-.361.52-1.106.8-2.538,1.208-5.576,1.572-11.852,1.789-17.8,1.789-1.21,0-2.4-.009-3.546-.018l-.342,0c-1.058-.007-2.057-.014-3.066-.014h-.163c-20.426.011-38.835.061-57.292.565-5.606.153-11.32.242-16.845.328-13.139.2-26.725.415-40.005,1.509-3.12.257-6.29.566-9.355.865-1.2.117-2.439.238-3.657.354-1.326.126-2.719.331-4.193.548A53.4,53.4,0,0,1,5.32,104.419ZM60.712,34.055c4.2,0,8.688,1.483,13.731,4.533a100.442,100.442,0,0,1,11.89,8.894l.582.483c1.346,1.117,2.7,2.261,4.008,3.367,2.964,2.506,6.03,5.1,9.167,7.5l.616.473.106.081c2.656,2.04,5.4,4.149,8.252,5.989a7.054,7.054,0,0,0,3.709,1.454c1.4,0,2.709-.821,4.726-2.16.7-.465,1.4-.937,2.075-1.394a77.212,77.212,0,0,1,8.576-5.266,26.37,26.37,0,0,1,9.683-2.852c.661-.055,1.344-.082,2.032-.082,4.335,0,11.5,1.124,20.993,6.48a171.923,171.923,0,0,1-2.463-44.5c.171-2.55.453-5.113.732-7.5.027-.231.107-.592.2-1.011.222-1,.527-2.369.278-2.861-.524-1.034-2.426-1.166-4.024-1.166-.428,0-.845.01-1.306.021l-.069,0c-.4.01-.775.02-1.114.02-.149,0-.281,0-.4-.006-1.96-.061-3.983-.091-6.185-.091-4.985,0-10.054.157-14.957.31-2.229.069-4.53.141-6.79.2C104.587,5.469,83.474,6.589,62,8.3,54.019,8.938,45.894,9.4,38.037,9.839c-9.172.517-18.653,1.052-27.959,1.873-3.462.305-3.464.6-3.486,3.4,0,.328-.005.7-.014,1.109-.021.943-.045,1.9-.069,2.826v.008l-.014.564c-.124,4.855-.26,10.033-.435,15.261-.219,6.5-.568,13.11-.906,19.5-.2,3.695-.4,7.513-.572,11.27,5.233-3.2,10.295-6.854,15.19-10.386,4.717-3.4,9.595-6.923,14.628-10.042,7.253-4.495,14.409-8.692,22.209-10.655A16.824,16.824,0,0,1,60.712,34.055Z" transform="translate(0 0)" fill="#ecf0f1"/>
    <path id="Fill_69" data-name="Fill 69" d="M.075,2.365c0,2.873-.451,7.112.873,9.817,1.68,3.431,3.782,2.359,4.338-.866C5.606,9.469,5.6,4,5,2.365,4.165.049.075-1.529.075,2.365" transform="translate(120.842 17.264)" fill="#ecf0f1"/>
    <path id="Fill_71" data-name="Fill 71" d="M13.322.021C10.625.116,2.77-.532.945,1.637-2.185,5.356,3.264,6.015,5.6,5.807c2.708-.241,11.074.347,12.888-1.824C21.525.351,15.443-.057,13.322.021" transform="translate(112.416 20.717)" fill="#fff"/>
    <path id="Fill_73" data-name="Fill 73" d="M16.088,27.466h0a17.156,17.156,0,0,1-9.3-2.977,15.4,15.4,0,0,1-6.1-7.315,12.3,12.3,0,0,1,1.1-10.4,13.926,13.926,0,0,1,3.848-4.25A12.761,12.761,0,0,1,11.025.251,18.269,18.269,0,0,1,14.05,0a16.735,16.735,0,0,1,8.392,2.143,12.149,12.149,0,0,1,5.516,6.571A13.728,13.728,0,0,1,28.648,14a16.475,16.475,0,0,1-1.231,5.347A14.882,14.882,0,0,1,24.478,23.9a11.4,11.4,0,0,1-4.432,2.913A11.84,11.84,0,0,1,16.088,27.466ZM15.051,5.831a12.833,12.833,0,0,0-5.628,1.39A8.523,8.523,0,0,0,5.374,11.18a5.335,5.335,0,0,0-.008,4.365c1.21,2.85,4.647,5.206,7.517,6.277a9.254,9.254,0,0,0,3.223.627,6.549,6.549,0,0,0,5-2.221,8.714,8.714,0,0,0,2.1-5.07,8.385,8.385,0,0,0-7.275-9.286C15.65,5.845,15.353,5.831,15.051,5.831Z" transform="translate(5.141 110.841)" fill="#ecf0f1"/>
    <path id="Fill_75" data-name="Fill 75" d="M48.2.024C45.253.269,42.7,2.336,39.731,2.7c-2.777.342-5.079-.608-7.68-1.368A16.778,16.778,0,0,0,22.812.828c-2.455.623-4.876,2.294-7.426,2.5C10.369,3.72,4.537-2,.62,4.47c-1.878,3.1.849,5.1,3.658,3.656C7.206,6.617,5.769,6.077,9.4,6.968c3.031.743,5.48,1.147,8.516.105C20.667,6.13,23.081,4.4,26.07,4.21,29,4.02,31.543,5.353,34.34,5.929a18.126,18.126,0,0,0,9.744-.906C47.185,4,48.422,3.436,51.55,4.35c1.981.58,6.309,2.42,8.237.937,3.334-2.565-1.129-2.94-2.887-3.3C54.07,1.4,51.142-.216,48.2.024" transform="translate(40.082 118.803)" fill="#ecf0f1"/>
    <path id="Fill_77" data-name="Fill 77" d="M11.324,21.047h0a10.843,10.843,0,0,1-7.677-3.109A12.018,12.018,0,0,1,.1,10.966,9.686,9.686,0,0,1,1.387,4.453,10.436,10.436,0,0,1,7.653.07,2.219,2.219,0,0,1,8.242,0c1.858,0,5.3,1.605,6.7,2.5a11.258,11.258,0,0,1,4.475,5.32,11.276,11.276,0,0,1,.711,4.706,10.371,10.371,0,0,1-1.287,4.49,7.551,7.551,0,0,1-5.443,3.85A12.516,12.516,0,0,1,11.324,21.047ZM8.258,6.494c-2.392.787-2.492,2.513-2.339,3.471a6.237,6.237,0,0,0,1.933,3.356,5.336,5.336,0,0,0,3.5,1.583c.057,0,.114,0,.17,0,1.7-.083,2.64-.867,2.651-2.209A6.386,6.386,0,0,0,12.3,8.752,6.385,6.385,0,0,0,8.258,6.494Z" transform="translate(144.686 110.004)" fill="#ecf0f1"/>
    <path id="Image_Border" data-name="Image Border" d="M1.207,87.514c-.964-2.323.375-3.393,2.333-3.879a25.846,25.846,0,0,1-.207-5.152c-.106-2.962-.143-5.925-.257-8.886C2.805,62.54,2.625,55.444,2.082,48.4,1.562,41.675.249,35.149.211,28.37c-.025-4.585-1.3-16.2,2.716-19.318C9.829,5.024,7.1,19.233,6.986,21.692A146.694,146.694,0,0,0,7.853,43.53c.682,6.742-.1,13.455-.364,20.2C7.35,67.309,7.274,70.883,7,74.457c-.084,1.114.045,6.136-.539,8.811.888-.038,1.751-.03,2.473-.022.5,0,.934.01,1.261,0,5.591-.169,11.182-.317,16.772-.528,21.5-.809,43.018-.442,64.517-1.464,20.335-.966,40.744-1.171,61.093-1.421a2.063,2.063,0,0,1,1.434,3.46c-1.117,1.4-6.3,1.1-7.916,1.228-5.732.46-11.452.668-17.2.722-12.107.115-24.167.634-36.253,1.323-21.475,1.224-42.982,1.123-64.468,2-5.216.211-10.431.37-15.649.507-1.4.037-3.938.481-6.282.481C3.969,89.553,1.879,89.134,1.207,87.514Zm155.331-18.88q-.679-11.749-1.729-23.489c-1.145-12.632-2.125-24.965-2.116-37.648,0-3.01,3.614-3.615,5.215-1.568,1.531,1.958.545,7.888.583,10.231.123,7.721.853,15.4,1.547,23.083.688,7.622,1.175,15.248,1.706,22.883.246,3.528,2.957,17.61-.984,19.666a2.623,2.623,0,0,1-1.2.34C155.89,82.131,156.667,70.852,156.538,68.635ZM3.085,8.037C1.8,7.51.754,6.773,1.462,5.212c.582-1.283,2.656-1.17,4.228-1.056.488.035.926.07,1.259.064,5.073-.1,10.135-.383,15.2-.694C33.648,2.822,45.121,2,56.642,1.8,78.6,1.428,100.526.219,122.491.015c6.506-.06,12.976.054,19.472.427,2.881.165,5.761.325,8.644.447.53.022,1.279-.019,2.1-.058,1.754-.085,3.837-.172,4.833.355,5.734,3.034-5.949,3.367-7.369,3.343-5.961-.1-11.909-.565-17.869-.71-21.919-.539-44,.8-65.9,1.693-10.535.433-21.064.494-31.6,1.086-5.757.324-11.51.693-17.266,1-2.654.14-5.31.275-7.967.342C8.44,7.965,6.5,8.3,4.915,8.3A5.076,5.076,0,0,1,3.085,8.037Z" transform="translate(2.258 149.233)" fill="#ecf0f1"/>
    <path id="Image_X" data-name="Image X" d="M2.5,50.559c-1.4-.032-2.344-.331-2.49-2.028-.186-2.171,3.309-3.062,4.722-3.769q7.263-3.632,14.6-7.113c9.705-4.629,19.5-9.074,29.332-13.429l.17-.076q-8.179-2.768-16.4-5.409C29.3,17.728,7.346,12.31,8.146,9.4c.9-3.26,20.346,4.427,23.337,5.38q11.045,3.52,22.012,7.283c17.53-7.876,35.246-16.267,53.531-22,1.152-.36,1.88.827,1.618,1.823-.35,1.333-4.451,2.413-5.59,2.921-4.5,2.011-9.029,3.973-13.533,5.985-9.81,4.384-19.639,8.727-29.448,13.113l-.577.258q10.345,3.677,20.582,7.65c3.654,1.411,7.288,2.868,10.933,4.3,1.826.717,9.418,2.517,9.855,4.34.616,2.574-7.477-.588-8.765-1-3.637-1.163-7.229-2.464-10.821-3.758-8.037-2.895-16.039-5.882-24.108-8.69q-1.132-.394-2.265-.785Q42.062,31.992,29.278,37.9q-6.852,3.174-13.642,6.474C12.3,45.985,6.3,50.561,2.593,50.561Z" transform="translate(29.023 168.823)" fill="#ecf0f1"/>
    <path id="Fill_117" data-name="Fill 117" d="M13.416,25.348a13.011,13.011,0,0,1-8.238-2.624,8.748,8.748,0,0,1-2.945-4.308,9.875,9.875,0,0,1-.21-4.073,2.694,2.694,0,0,1-.4.031,1.786,1.786,0,0,1-1.608-.932C-.289,9.632,3.2,6.3,5.31,4.647A22.635,22.635,0,0,1,15.088.079,9.962,9.962,0,0,1,16.331,0a10.833,10.833,0,0,1,7.845,3.578A13,13,0,0,1,27.782,13,12.353,12.353,0,0,1,24,21.419a14.5,14.5,0,0,1-8.49,3.808A18.419,18.419,0,0,1,13.416,25.348Zm3-21.329A1.966,1.966,0,0,0,14.281,5.2a3.4,3.4,0,0,1-1.617,1.58,2.774,2.774,0,0,1-1.175.161,3.286,3.286,0,0,0-1.449.222A7.17,7.17,0,0,0,7.4,10.168l-.066.112c-1.682,2.824-2.047,5.7-1,7.881.93,1.944,2.872,3.177,5.616,3.565a13.448,13.448,0,0,0,1.881.133,11.835,11.835,0,0,0,6.882-2.078,8.507,8.507,0,0,0,3.57-6.135,8.769,8.769,0,0,0-1.711-6.19,8.636,8.636,0,0,0-5.443-3.4C16.872,4.031,16.633,4.02,16.42,4.02Z" transform="translate(6.547 244.08)" fill="#ecf0f1"/>
    <path id="Fill_119" data-name="Fill 119" d="M8.362,1.007c-2.455,1.3-6.338,3.3-7.778,5.771-1.521,2.61.054,5.465,3.258,4.23C6.386,10.028,8,6.914,10.717,5.916c2.395-.881,3.36-.432,5.89.445,2.608.9,4.887,1.777,7.706,1.555,3.543-.279,6.612-2.333,10.08-2.8,2.92-.394,5.328.742,8.124,1.194,3.244.524,5.366-.7,8.4-1.343,2.065-.435,5.7,1.335,7.21.673,3.386-1.489-.2-3.309-2.07-3.911-3.158-1.013-5.1-.119-8.1.721-3.261.912-4.67.226-7.787-.611C33.86.144,28.988,4.242,23.01,3.5c-5.535-.69-8.846-5.562-14.648-2.49" transform="translate(39.772 251.394)" fill="#ecf0f1"/>
    <path id="Fill_121" data-name="Fill 121" d="M10.549,19.392h0a13.86,13.86,0,0,1-4.742-.829,9.958,9.958,0,0,1-3.879-2.489,7.18,7.18,0,0,1-1.9-5.654A9.575,9.575,0,0,1,3.861,3.253a18.272,18.272,0,0,1,7.7-3.085A8.915,8.915,0,0,1,13.247,0a6.51,6.51,0,0,1,5.29,2.555A10.1,10.1,0,0,1,20.5,8.391a11.756,11.756,0,0,1-2.045,7.18,9.026,9.026,0,0,1-6.879,3.782C11.242,19.379,10.895,19.392,10.549,19.392ZM13.166,4.749c-2.557,0-5.823.861-7.356,2.786a5.024,5.024,0,0,0-1.258,3.8A3.966,3.966,0,0,0,6.37,14.008a7.1,7.1,0,0,0,4.016,1.333,5.793,5.793,0,0,0,3.315-1.03A5.727,5.727,0,0,0,15.777,11.7,5.576,5.576,0,0,0,16,8.3a7.239,7.239,0,0,0-2.188-3.534C13.6,4.755,13.387,4.749,13.166,4.749Z" transform="translate(137.446 244.606)" fill="#ecf0f1"/>
  </g>
</svg>
